<?xml version="1.0" encoding="UTF-8" standalone="no"?>
<!-- Created with Inkscape (http://www.inkscape.org/) -->

<svg
   xmlns:dc="http://purl.org/dc/elements/1.1/"
   xmlns:cc="http://creativecommons.org/ns#"
   xmlns:rdf="http://www.w3.org/1999/02/22-rdf-syntax-ns#"
   xmlns:svg="http://www.w3.org/2000/svg"
   xmlns="http://www.w3.org/2000/svg"
   xmlns:sodipodi="http://sodipodi.sourceforge.net/DTD/sodipodi-0.dtd"
   xmlns:inkscape="http://www.inkscape.org/namespaces/inkscape"
   width="210mm"
   height="297mm"
   viewBox="0 0 744.09448819 1052.3622047"
   id="svg2"
   version="1.1"
   inkscape:version="0.91 r13725"
   sodipodi:docname="icon-design.svg">
  <defs
     id="defs4" />
  <sodipodi:namedview
     id="base"
     pagecolor="#ffffff"
     bordercolor="#666666"
     borderopacity="1.0"
     inkscape:pageopacity="0.0"
     inkscape:pageshadow="2"
     inkscape:zoom="1"
     inkscape:cx="520"
     inkscape:cy="502.5"
     inkscape:document-units="px"
     inkscape:current-layer="layer1"
     showgrid="false"
     inkscape:window-width="1440"
     inkscape:window-height="805"
     inkscape:window-x="0"
     inkscape:window-y="1"
     inkscape:window-maximized="1" />
  <metadata
     id="metadata7">
    <rdf:RDF>
      <cc:Work
         rdf:about="">
        <dc:format>image/svg+xml</dc:format>
        <dc:type
           rdf:resource="http://purl.org/dc/dcmitype/StillImage" />
        <dc:title></dc:title>
      </cc:Work>
    </rdf:RDF>
  </metadata>
  <g
     inkscape:label="Layer 1"
     inkscape:groupmode="layer"
     id="layer1">
    <path
       style="fill:#ffffff;fill-opacity:1;fill-rule:evenodd;stroke:#000000;stroke-width:1px;stroke-linecap:butt;stroke-linejoin:miter;stroke-opacity:1"
       d="m 429.80131,418.53186 5.95705,-1.78712 -5.06349,-2.08497 -3.27638,0 -1.48926,0.89356 z"
       id="path4292"
       inkscape:connector-curvature="0" />
    <path
       style="fill:#4f9eb8;fill-opacity:1;stroke:none;stroke-width:12.73299313;stroke-linejoin:miter;stroke-miterlimit:4;stroke-dasharray:none;stroke-opacity:1"
       d="m 334.62605,403.72342 c -1.96791,0 -5.16162,3.0427 -5.40167,4.94546 l 0,39.45851 c 0.24002,1.9028 3.43373,4.94562 5.40167,4.94562 13.6133,-0.006 24.87054,0.0102 38.48384,0 2.13333,0 5.43358,-3.30023 5.43358,-5.43355 0.062,-14.50735 0.0532,-26.26736 0,-38.48264 0,-2.13332 -3.30025,-5.4334 -5.43358,-5.4334 z"
       id="rect4160"
       inkscape:connector-curvature="0"
       sodipodi:nodetypes="sccccccss" />
    <path
       style="fill:#ffebbf;fill-opacity:0.94117647;fill-rule:evenodd;stroke:none;stroke-width:12.73299313px;stroke-linecap:butt;stroke-linejoin:miter;stroke-opacity:1"
       d="m 370.31585,419.06242 -20.64382,24.45835 0.44878,-13.23893 z"
       id="path4150"
       inkscape:connector-curvature="0" />
    <path
       style="fill:#ebbd98;fill-opacity:1;fill-rule:evenodd;stroke:none;stroke-width:12.73299313px;stroke-linecap:butt;stroke-linejoin:miter;stroke-opacity:1"
       d="m 348.10131,429.1599 1.34633,14.58526 2.69267,-13.23893 19.20303,-12.29059 z"
       id="path3338"
       inkscape:connector-curvature="0"
       sodipodi:nodetypes="ccccc" />
    <path
       style="fill:#ffffff;fill-opacity:1;fill-rule:evenodd;stroke:none;stroke-width:12.73299313px;stroke-linecap:butt;stroke-linejoin:miter;stroke-opacity:1"
       d="m 348.10131,429.1599 -14.8097,-5.8341 38.42845,-5.37823 -1.6286,15.7001 -18.01611,-3.19931 17.79172,-11.38594 z"
       id="path3336"
       inkscape:connector-curvature="0"
       sodipodi:nodetypes="ccccccc" />
    <path
       sodipodi:nodetypes="sccccccss"
       inkscape:connector-curvature="0"
       id="path4262"
       d="m 337.24457,489.76061 c -1.96791,0 -5.16162,3.0427 -5.40167,4.94546 l 0,39.45851 c 0.24002,1.9028 3.43373,4.94562 5.40167,4.94562 13.6133,-0.006 24.87054,0.0102 38.48384,0 2.13333,0 5.43358,-3.30023 5.43358,-5.43355 0.062,-14.50735 0.0532,-26.26736 0,-38.48264 0,-2.13332 -3.30025,-5.4334 -5.43358,-5.4334 z"
       style="fill:#4f9eb8;fill-opacity:1;stroke:none;stroke-width:12.73299313;stroke-linejoin:miter;stroke-miterlimit:4;stroke-dasharray:none;stroke-opacity:1" />
    <path
       style="fill:#ffffff;fill-opacity:1;fill-rule:evenodd;stroke:#000000;stroke-width:1px;stroke-linecap:butt;stroke-linejoin:miter;stroke-opacity:1"
       d="m 442.01327,414.95763 27.10459,-8.04202 c 0,0 5.36134,0 8.93557,1.19141 3.57424,1.19141 7.44632,3.57423 7.44632,3.57423 l -29.78526,8.33987 z"
       id="path4278"
       inkscape:connector-curvature="0" />
    <path
       style="fill:#ffffff;fill-opacity:1;fill-rule:evenodd;stroke:#000000;stroke-width:1px;stroke-linecap:butt;stroke-linejoin:miter;stroke-opacity:1"
       d="m 441.41756,414.95763 -18.16901,-8.93558 c 0,0 3.27638,0 7.44632,0.5957 4.16994,0.59571 4.76564,1.48927 4.76564,1.48927 l 20.55183,11.61625 z"
       id="path4280"
       inkscape:connector-curvature="0"
       sodipodi:nodetypes="ccsccc" />
    <path
       style="fill:none;fill-rule:evenodd;stroke:#000000;stroke-width:1px;stroke-linecap:butt;stroke-linejoin:miter;stroke-opacity:1"
       d="m 442.01327,415.85119 -0.59571,7.44631"
       id="path4282"
       inkscape:connector-curvature="0" />
    <path
       style="fill:none;fill-rule:evenodd;stroke:#000000;stroke-width:1px;stroke-linecap:butt;stroke-linejoin:miter;stroke-opacity:1"
       d="m 455.41664,420.31897 -0.29786,6.85061"
       id="path4284"
       inkscape:connector-curvature="0" />
    <path
       style="fill:none;fill-rule:evenodd;stroke:#000000;stroke-width:1px;stroke-linecap:butt;stroke-linejoin:miter;stroke-opacity:1"
       d="m 422.9507,416.44689 41.99722,14.59478"
       id="path4286"
       inkscape:connector-curvature="0" />
    <path
       style="fill:#ffffff;fill-opacity:1;fill-rule:evenodd;stroke:#000000;stroke-width:1px;stroke-linecap:butt;stroke-linejoin:miter;stroke-opacity:1"
       d="m 422.65285,411.08554 4.76564,1.19141 0.89356,5.95706 -6.25491,-1.78712 z"
       id="path4288"
       inkscape:connector-curvature="0" />
    <path
       style="fill:#ffffff;fill-opacity:1;fill-rule:evenodd;stroke:#000000;stroke-width:1px;stroke-linecap:butt;stroke-linejoin:miter;stroke-opacity:1"
       d="m 429.20561,419.12756 -11.3184,1.19141 -5.6592,-2.08496 9.53128,-1.48927 z"
       id="path4290"
       inkscape:connector-curvature="0" />
    <path
       style="fill:#ffffff;fill-rule:evenodd;stroke:#000000;stroke-width:1px;stroke-linecap:butt;stroke-linejoin:miter;stroke-opacity:1;fill-opacity:1"
       d="m 251.98331,493.59071 3.57423,-0.5957 37.82728,34.84875 1.48926,-0.5957 c 0,0 2.97853,2.38282 4.46779,4.16993 1.48926,1.78712 -0.89356,3.57424 -2.08497,3.57424 -1.19141,0 -6.2549,-5.95706 -6.2549,-5.95706 z"
       id="path4298"
       inkscape:connector-curvature="0" />
    <path
       style="fill:#ffffff;fill-rule:evenodd;stroke:#000000;stroke-width:1px;stroke-linecap:butt;stroke-linejoin:miter;stroke-opacity:1;fill-opacity:1"
       d="m 277.89648,513.84469 -33.35949,0.89356 c 0,0 6.51976,11.98725 44.38004,4.76564 20.62608,-3.93429 13.99907,-13.40337 13.99907,-13.40337 z"
       id="path4296"
       inkscape:connector-curvature="0"
       sodipodi:nodetypes="ccscc" />
    <path
       style="fill:#ffffff;fill-opacity:1;fill-rule:evenodd;stroke:#000000;stroke-width:1px;stroke-linecap:butt;stroke-linejoin:miter;stroke-opacity:1"
       d="m 239.4735,494.07998 31.27452,-3.57424 c 0,0 2.32094,6.3971 -8.04202,8.04202 -18.76471,2.97854 -23.2325,-4.46778 -23.2325,-4.46778 z"
       id="path4300"
       inkscape:connector-curvature="0"
       sodipodi:nodetypes="ccsc" />
    <g
       id="g4312"
       transform="matrix(0.58526729,0,0,0.51409422,195.86049,285.249)"
       style="stroke:#ffffff;stroke-opacity:1;fill:#deb188;fill-opacity:1">
      <path
         id="path4302"
         d="m 272.53516,426.16992 -31.27539,3.57422 c 0,0 3.74178,6.14485 18.55859,5.00586 l 16.34961,14.85156 -29.84375,0.80078 c 0,0 5.69444,10.44839 37.27734,5.95118 l 9.1875,8.3457 c 0,0 5.06445,5.95703 6.25586,5.95703 1.19141,0 3.57325,-1.7871 2.08399,-3.57422 -1.48926,-1.78711 -4.4668,-4.16992 -4.4668,-4.16992 l -1.49023,0.5957 -8.3125,-7.6582 c 1.2472,-0.20673 2.52305,-0.42936 3.8457,-0.68164 20.62608,-3.93429 13.99805,-13.4043 13.99804,-13.4043 l -24.80078,7.67578 -16.39062,-15.09961 c 0.33358,-0.0476 0.63739,-0.0744 0.98047,-0.1289 10.36296,-1.64492 8.04297,-8.04102 8.04297,-8.04102 z"
         style="fill:#deb188;fill-opacity:1;fill-rule:evenodd;stroke:#ffffff;stroke-width:1.8230623px;stroke-linecap:butt;stroke-linejoin:round;stroke-opacity:1"
         inkscape:connector-curvature="0" />
      <path
         sodipodi:nodetypes="ccsc"
         inkscape:connector-curvature="0"
         id="path4310"
         d="m 260.02533,431.93522 -5.6592,-4.16993 c 0,0 -1.19141,-8.04202 1.48926,-5.95705 2.68068,2.08497 4.16994,10.12698 4.16994,10.12698 z"
         style="fill:#deb188;fill-opacity:1;fill-rule:evenodd;stroke:#ffffff;stroke-width:1.8230623px;stroke-linecap:butt;stroke-linejoin:miter;stroke-opacity:1" />
    </g>
    <path
       style="fill:#4f9eb8;fill-opacity:1;stroke:none;stroke-width:12.73299313;stroke-linejoin:miter;stroke-miterlimit:4;stroke-dasharray:none;stroke-opacity:1"
       d="m 417.36692,490.35632 c -1.96791,0 -5.16162,3.0427 -5.40167,4.94546 l 0,39.45851 c 0.24002,1.9028 3.43373,4.94562 5.40167,4.94562 13.6133,-0.006 24.87054,0.0102 38.48384,0 2.13333,0 5.43358,-3.30023 5.43358,-5.43355 0.062,-14.50735 0.0532,-26.26736 0,-38.48264 0,-2.13332 -3.30025,-5.4334 -5.43358,-5.4334 z"
       id="path4339"
       inkscape:connector-curvature="0"
       sodipodi:nodetypes="sccccccss" />
    <g
       style="fill:#f5f5f5;fill-opacity:1;stroke:#000000;stroke-opacity:1"
       transform="matrix(0.58526729,0,0,0.51409422,275.98284,285.84471)"
       id="g4341">
      <path
         inkscape:connector-curvature="0"
         style="fill:#f5f5f5;fill-opacity:1;fill-rule:evenodd;stroke:#000000;stroke-width:1.8230623px;stroke-linecap:butt;stroke-linejoin:round;stroke-opacity:1"
         d="m 272.53516,426.16992 -31.27539,3.57422 c 0,0 3.74178,6.14485 18.55859,5.00586 l 16.34961,14.85156 -29.84375,0.80078 c 0,0 5.69444,10.44839 37.27734,5.95118 l 9.1875,8.3457 c 0,0 5.06445,5.95703 6.25586,5.95703 1.19141,0 3.57325,-1.7871 2.08399,-3.57422 -1.48926,-1.78711 -4.4668,-4.16992 -4.4668,-4.16992 l -1.49023,0.5957 -8.3125,-7.6582 c 1.2472,-0.20673 2.52305,-0.42936 3.8457,-0.68164 20.62608,-3.93429 13.99805,-13.4043 13.99804,-13.4043 l -24.80078,7.67578 -16.39062,-15.09961 c 0.33358,-0.0476 0.63739,-0.0744 0.98047,-0.1289 10.36296,-1.64492 8.04297,-8.04102 8.04297,-8.04102 z"
         id="path4343" />
      <path
         style="fill:#f5f5f5;fill-opacity:1;fill-rule:evenodd;stroke:#000000;stroke-width:1.8230623px;stroke-linecap:butt;stroke-linejoin:miter;stroke-opacity:1"
         d="m 260.02533,431.93522 -5.6592,-4.16993 c 0,0 -1.19141,-8.04202 1.48926,-5.95705 2.68068,2.08497 4.16994,10.12698 4.16994,10.12698 z"
         id="path4345"
         inkscape:connector-curvature="0"
         sodipodi:nodetypes="ccsc" />
    </g>
    <path
       sodipodi:nodetypes="sccccccss"
       inkscape:connector-curvature="0"
       id="path4370"
       d="m 492.44454,452.2218 c -1.96791,0 -5.16162,3.0427 -5.40167,4.94546 l 0,39.45851 c 0.24002,1.9028 3.43373,4.94562 5.40167,4.94562 13.6133,-0.006 24.87054,0.0102 38.48384,0 2.13333,0 5.43358,-3.30023 5.43358,-5.43355 0.062,-14.50735 0.0532,-26.26736 0,-38.48264 0,-2.13332 -3.30025,-5.4334 -5.43358,-5.4334 z"
       style="fill:#4f9eb8;fill-opacity:1;stroke:none;stroke-width:12.73299313;stroke-linejoin:miter;stroke-miterlimit:4;stroke-dasharray:none;stroke-opacity:1" />
    <g
       id="g4378"
       transform="matrix(0.60379979,0,0,0.60379979,210.25157,181.30932)">
      <path
         style="fill:#ffebbf;fill-opacity:0.94117647;fill-rule:evenodd;stroke:none;stroke-width:12.73299313px;stroke-linecap:butt;stroke-linejoin:miter;stroke-opacity:1"
         d="m 528.13434,467.5608 -20.64382,24.45835 0.44878,-13.23893 z"
         id="path4372"
         inkscape:connector-curvature="0" />
      <path
         style="fill:#ebbd98;fill-opacity:1;fill-rule:evenodd;stroke:none;stroke-width:12.73299313px;stroke-linecap:butt;stroke-linejoin:miter;stroke-opacity:1"
         d="m 505.9198,477.65828 1.34633,14.58526 2.69267,-13.23893 19.20303,-12.29059 z"
         id="path4374"
         inkscape:connector-curvature="0"
         sodipodi:nodetypes="ccccc" />
      <path
         style="fill:#ffffff;fill-opacity:1;fill-rule:evenodd;stroke:none;stroke-width:12.73299313px;stroke-linecap:butt;stroke-linejoin:miter;stroke-opacity:1"
         d="m 505.9198,477.65828 -14.8097,-5.8341 38.42845,-5.37823 -1.6286,15.7001 -18.01611,-3.19931 17.79172,-11.38594 z"
         id="path4376"
         inkscape:connector-curvature="0"
         sodipodi:nodetypes="ccccccc" />
    </g>
    <path
       style="fill:none;fill-rule:evenodd;stroke:#e6e6e6;stroke-width:1;stroke-linecap:butt;stroke-linejoin:miter;stroke-miterlimit:4;stroke-dasharray:2, 2;stroke-dashoffset:0;stroke-opacity:1"
       d="m 512.75403,475.14408 c 0,0 -2.24145,1.43453 -7.35196,4.93119 -5.1105,3.49666 -4.57255,6.72435 -3.85529,9.23478 0.71726,2.51042 4.12427,6.1864 8.24853,4.48289 4.12427,-1.7035 3.39633,-4.81425 2.95872,-5.7381 -0.80693,-1.7035 -4.64289,-3.62751 -7.08298,-2.60009 -3.40701,1.43453 -9.77273,8.60717 -9.77273,8.60717"
       id="path4387"
       inkscape:connector-curvature="0"
       sodipodi:nodetypes="csssssc" />
    <path
       sodipodi:nodetypes="sccccccss"
       inkscape:connector-curvature="0"
       id="path4389"
       d="m 483.81966,518.88866 c -1.96791,0 -5.16162,3.0427 -5.40167,4.94546 l 0,39.45851 c 0.24002,1.9028 3.43373,4.94562 5.40167,4.94562 13.6133,-0.006 24.87054,0.0102 38.48384,0 2.13333,0 5.43358,-3.30023 5.43358,-5.43355 0.062,-14.50735 0.0532,-26.26736 0,-38.48264 0,-2.13332 -3.30025,-5.4334 -5.43358,-5.4334 z"
       style="fill:#4f9eb8;fill-opacity:1;stroke:none;stroke-width:12.73299313;stroke-linejoin:miter;stroke-miterlimit:4;stroke-dasharray:none;stroke-opacity:1" />
    <g
       id="g4391"
       transform="matrix(0.58526729,0,0,0.51409422,342.43558,314.37705)"
       style="fill:#f5f5f5;fill-opacity:1;stroke:#000000;stroke-opacity:1">
      <path
         id="path4393"
         d="m 272.53516,426.16992 -31.27539,3.57422 c 0,0 3.74178,6.14485 18.55859,5.00586 l 16.34961,14.85156 -29.84375,0.80078 c 0,0 5.69444,10.44839 37.27734,5.95118 l 9.1875,8.3457 c 0,0 5.06445,5.95703 6.25586,5.95703 1.19141,0 3.57325,-1.7871 2.08399,-3.57422 -1.48926,-1.78711 -4.4668,-4.16992 -4.4668,-4.16992 l -1.49023,0.5957 -8.3125,-7.6582 c 1.2472,-0.20673 2.52305,-0.42936 3.8457,-0.68164 20.62608,-3.93429 13.99805,-13.4043 13.99804,-13.4043 l -24.80078,7.67578 -16.39062,-15.09961 c 0.33358,-0.0476 0.63739,-0.0744 0.98047,-0.1289 10.36296,-1.64492 8.04297,-8.04102 8.04297,-8.04102 z"
         style="fill:#ffffff;fill-opacity:1;fill-rule:evenodd;stroke:none;stroke-width:1.8230623px;stroke-linecap:butt;stroke-linejoin:round;stroke-opacity:1"
         inkscape:connector-curvature="0" />
      <path
         sodipodi:nodetypes="ccsc"
         inkscape:connector-curvature="0"
         id="path4395"
         d="m 261.57244,433.69652 -7.20631,-5.93123 c 0,0 -1.32834,-7.79316 1.48926,-5.95705 5.00134,3.25917 5.71705,11.88828 5.71705,11.88828 z"
         style="fill:#d7af88;fill-opacity:1;fill-rule:evenodd;stroke:none;stroke-width:1.8230623px;stroke-linecap:butt;stroke-linejoin:miter;stroke-opacity:1" />
      <path
         inkscape:connector-curvature="0"
         style="fill:#ffffff;fill-opacity:1;fill-rule:evenodd;stroke:none;stroke-width:1.8230623px;stroke-linecap:butt;stroke-linejoin:round;stroke-opacity:1"
         d="m 286.85938,455.84961 c 1.2472,-0.20673 2.52305,-0.42936 3.8457,-0.68164 20.62608,-3.93429 13.99805,-13.4043 13.99804,-13.4043 l -24.80078,7.67578 z"
         id="path4397"
         sodipodi:nodetypes="csccc" />
    </g>
  </g>
</svg>
