<?xml version="1.0" encoding="UTF-8" standalone="no"?>
<!-- Created with Inkscape (http://www.inkscape.org/) -->

<svg
   xmlns:dc="http://purl.org/dc/elements/1.1/"
   xmlns:cc="http://creativecommons.org/ns#"
   xmlns:rdf="http://www.w3.org/1999/02/22-rdf-syntax-ns#"
   xmlns:svg="http://www.w3.org/2000/svg"
   xmlns="http://www.w3.org/2000/svg"
   xmlns:xlink="http://www.w3.org/1999/xlink"
   xmlns:sodipodi="http://sodipodi.sourceforge.net/DTD/sodipodi-0.dtd"
   xmlns:inkscape="http://www.inkscape.org/namespaces/inkscape"
   width="210mm"
   height="297mm"
   viewBox="0 0 744.09448819 1052.3622047"
   id="svg2"
   version="1.1"
   inkscape:version="0.92.3 (2405546, 2018-03-11)"
   sodipodi:docname="icon-design.svg">
  <defs
     id="defs4">
    <linearGradient
       id="linearGradient1016"
       inkscape:collect="always">
      <stop
         id="stop1012"
         offset="0"
         style="stop-color:#bdc1c2;stop-opacity:1" />
      <stop
         id="stop1014"
         offset="1"
         style="stop-color:#4c4c4c;stop-opacity:1" />
    </linearGradient>
    <linearGradient
       inkscape:collect="always"
       id="linearGradient918">
      <stop
         style="stop-color:#000000;stop-opacity:0.39215687"
         offset="0"
         id="stop914" />
      <stop
         style="stop-color:#000000;stop-opacity:0.07843138"
         offset="1"
         id="stop916" />
    </linearGradient>
    <linearGradient
       inkscape:collect="always"
       id="linearGradient869">
      <stop
         style="stop-color:#9bd5e4;stop-opacity:1"
         offset="0"
         id="stop865" />
      <stop
         style="stop-color:#144f84;stop-opacity:1"
         offset="1"
         id="stop867" />
    </linearGradient>
    <linearGradient
       inkscape:collect="always"
       xlink:href="#linearGradient869"
       id="linearGradient871"
       x1="505.33215"
       y1="544.46576"
       x2="558.76965"
       y2="544.46576"
       gradientUnits="userSpaceOnUse"
       gradientTransform="translate(-196.64764,-1172.1417)" />
    <linearGradient
       inkscape:collect="always"
       xlink:href="#linearGradient869"
       id="linearGradient885"
       gradientUnits="userSpaceOnUse"
       gradientTransform="translate(-195.67606,-1237.4809)"
       x1="505.33215"
       y1="544.46576"
       x2="558.76965"
       y2="544.46576" />
    <linearGradient
       inkscape:collect="always"
       xlink:href="#linearGradient869"
       id="linearGradient895"
       gradientUnits="userSpaceOnUse"
       gradientTransform="translate(-132.89764,-1172.1417)"
       x1="505.33215"
       y1="544.46576"
       x2="558.76965"
       y2="544.46576" />
    <linearGradient
       inkscape:collect="always"
       xlink:href="#linearGradient918"
       id="linearGradient920"
       x1="523.96509"
       y1="588.94855"
       x2="549.82568"
       y2="635.18134"
       gradientUnits="userSpaceOnUse"
       gradientTransform="translate(95.625,-209.0625)" />
    <linearGradient
       inkscape:collect="always"
       xlink:href="#linearGradient869"
       id="linearGradient946"
       gradientUnits="userSpaceOnUse"
       gradientTransform="translate(76.164856,-1140.2667)"
       x1="505.33215"
       y1="544.46576"
       x2="558.76965"
       y2="544.46576" />
    <linearGradient
       inkscape:collect="always"
       xlink:href="#linearGradient918"
       id="linearGradient948"
       gradientUnits="userSpaceOnUse"
       x1="523.96509"
       y1="588.94855"
       x2="549.82568"
       y2="635.18134"
       gradientTransform="translate(63.75)" />
    <linearGradient
       inkscape:collect="always"
       xlink:href="#linearGradient869"
       id="linearGradient970"
       gradientUnits="userSpaceOnUse"
       gradientTransform="translate(-69.147641,-1172.1417)"
       x1="505.33215"
       y1="544.46576"
       x2="558.76965"
       y2="544.46576" />
    <linearGradient
       inkscape:collect="always"
       xlink:href="#linearGradient918"
       id="linearGradient972"
       gradientUnits="userSpaceOnUse"
       x1="523.96509"
       y1="588.94855"
       x2="549.82568"
       y2="635.18134"
       gradientTransform="translate(95.625,-145.3125)" />
    <linearGradient
       inkscape:collect="always"
       xlink:href="#linearGradient869"
       id="linearGradient974"
       gradientUnits="userSpaceOnUse"
       gradientTransform="translate(-69.147641,-1235.8917)"
       x1="505.33215"
       y1="544.46576"
       x2="558.76965"
       y2="544.46576" />
    <linearGradient
       inkscape:collect="always"
       xlink:href="#linearGradient918"
       id="linearGradient986"
       gradientUnits="userSpaceOnUse"
       gradientTransform="translate(95.625,-145.3125)"
       x1="523.96509"
       y1="588.94855"
       x2="549.82568"
       y2="635.18134" />
    <linearGradient
       inkscape:collect="always"
       xlink:href="#linearGradient1016"
       id="linearGradient1006"
       gradientUnits="userSpaceOnUse"
       gradientTransform="translate(203.66486,-1076.5167)"
       x1="505.33215"
       y1="544.46576"
       x2="558.76965"
       y2="544.46576" />
    <linearGradient
       inkscape:collect="always"
       xlink:href="#linearGradient918"
       id="linearGradient1008"
       gradientUnits="userSpaceOnUse"
       gradientTransform="translate(0,127.5)"
       x1="523.96509"
       y1="588.94855"
       x2="549.82568"
       y2="635.18134" />
    <linearGradient
       inkscape:collect="always"
       xlink:href="#linearGradient918"
       id="linearGradient1010"
       gradientUnits="userSpaceOnUse"
       gradientTransform="translate(0,127.5)"
       x1="523.96509"
       y1="588.94855"
       x2="549.82568"
       y2="635.18134" />
    <linearGradient
       inkscape:collect="always"
       xlink:href="#linearGradient869"
       id="linearGradient1048"
       gradientUnits="userSpaceOnUse"
       gradientTransform="translate(76.164856,-1140.2667)"
       x1="505.33215"
       y1="544.46576"
       x2="558.76965"
       y2="544.46576" />
    <linearGradient
       inkscape:collect="always"
       xlink:href="#linearGradient918"
       id="linearGradient1050"
       gradientUnits="userSpaceOnUse"
       gradientTransform="translate(63.75)"
       x1="523.96509"
       y1="588.94855"
       x2="549.82568"
       y2="635.18134" />
    <linearGradient
       inkscape:collect="always"
       xlink:href="#linearGradient869"
       id="linearGradient1184"
       gradientUnits="userSpaceOnUse"
       gradientTransform="translate(76.164856,-1140.2667)"
       x1="505.33215"
       y1="544.46576"
       x2="558.76965"
       y2="544.46576" />
    <linearGradient
       inkscape:collect="always"
       xlink:href="#linearGradient918"
       id="linearGradient1186"
       gradientUnits="userSpaceOnUse"
       gradientTransform="translate(63.75)"
       x1="523.96509"
       y1="588.94855"
       x2="549.82568"
       y2="635.18134" />
  </defs>
  <sodipodi:namedview
     id="base"
     pagecolor="#ffffff"
     bordercolor="#666666"
     borderopacity="1.0"
     inkscape:pageopacity="0.0"
     inkscape:pageshadow="2"
     inkscape:zoom="1"
     inkscape:cx="354.18331"
     inkscape:cy="821.18228"
     inkscape:document-units="px"
     inkscape:current-layer="layer1"
     showgrid="false"
     inkscape:window-width="1600"
     inkscape:window-height="807"
     inkscape:window-x="0"
     inkscape:window-y="26"
     inkscape:window-maximized="1"
     showguides="true"
     inkscape:guide-bbox="true"
     inkscape:measure-start="0,0"
     inkscape:measure-end="0,0"
     inkscape:snap-global="false" />
  <metadata
     id="metadata7">
    <rdf:RDF>
      <cc:Work
         rdf:about="">
        <dc:format>image/svg+xml</dc:format>
        <dc:type
           rdf:resource="http://purl.org/dc/dcmitype/StillImage" />
        <dc:title />
      </cc:Work>
    </rdf:RDF>
  </metadata>
  <g
     inkscape:label="Layer 1"
     inkscape:groupmode="layer"
     id="layer1">
    <rect
       ry="8.9910727"
       y="-654.39465"
       x="308.68451"
       height="53.4375"
       width="53.4375"
       id="rect848"
       style="fill:url(#linearGradient871);fill-opacity:1;stroke-width:0.9865647"
       transform="rotate(90)" />
    <g
       id="g875"
       transform="matrix(1.2017856,0,0,1.2017856,-12.47537,-319.49114)">
      <path
         id="path4393"
         d="m 530.6244,534.67082 -18.30446,1.83749 c 0,0 1.82559,2.67324 10.49739,2.08769 l 9.56889,7.75654 -17.10222,0.77603 c 0,0 3.33277,5.37146 21.81721,3.05947 l 5.37714,4.29047 c 0,0 2.96406,3.06248 3.66135,3.06248 0.69729,0 2.09131,-0.91874 1.21969,-1.83749 -0.87161,-0.91874 -2.61427,-2.14373 -2.61427,-2.14373 l -0.87218,0.30625 -5.06286,-4.03595 c 13.10833,-2.84525 10.64119,-7.14259 10.64118,-7.14259 l -14.87944,3.58172 -9.59289,-7.88406 c 3.65684,-1.00572 5.52241,-1.60205 5.64547,-3.71435 z"
         style="fill:#ffffff;fill-opacity:1;fill-rule:evenodd;stroke:none;stroke-width:1px;stroke-linecap:butt;stroke-linejoin:round;stroke-opacity:1"
         inkscape:connector-curvature="0"
         sodipodi:nodetypes="cccccccsccccccccc" />
      <path
         sodipodi:nodetypes="ccsc"
         inkscape:connector-curvature="0"
         id="path4395"
         d="m 524.20828,538.5402 -4.21761,-3.04921 c 0,0 -0.77744,-4.00642 0.87161,-3.06248 2.92712,1.67552 3.346,6.11169 3.346,6.11169 z"
         style="fill:#d7af88;fill-opacity:1;fill-rule:evenodd;stroke:none;stroke-width:1px;stroke-linecap:butt;stroke-linejoin:miter;stroke-opacity:1" />
    </g>
    <rect
       transform="rotate(90)"
       style="fill:url(#linearGradient885);fill-opacity:1;stroke-width:0.9865647"
       id="rect877"
       width="53.4375"
       height="53.4375"
       x="309.65607"
       y="-719.73389"
       ry="8.9910727" />
    <g
       transform="matrix(1.2017856,0,0,1.2017856,52.863854,-318.51955)"
       id="g883"
       style="fill:#ffffff;fill-opacity:1;stroke:#000000;stroke-width:0.78008926;stroke-linecap:round;stroke-linejoin:round;stroke-miterlimit:4;stroke-dasharray:none;stroke-opacity:1;paint-order:normal">
      <path
         sodipodi:nodetypes="cccccccsccccccccc"
         inkscape:connector-curvature="0"
         style="fill:#ffffff;fill-opacity:1;fill-rule:evenodd;stroke:#000000;stroke-width:0.78008926;stroke-linecap:round;stroke-linejoin:round;stroke-miterlimit:4;stroke-dasharray:none;stroke-opacity:1;paint-order:normal"
         d="m 530.6244,534.67082 -18.30446,1.83749 c 0,0 1.82559,2.67324 10.49739,2.08769 l 9.56889,7.75654 -17.10222,0.77603 c 0,0 3.33277,5.37146 21.81721,3.05947 l 5.37714,4.29047 c 0,0 2.96406,3.06248 3.66135,3.06248 0.69729,0 2.09131,-0.91874 1.21969,-1.83749 -0.87161,-0.91874 -2.61427,-2.14373 -2.61427,-2.14373 l -0.87218,0.30625 -5.06286,-4.03595 c 13.10833,-2.84525 10.64119,-7.14259 10.64118,-7.14259 l -14.87944,3.58172 -9.59289,-7.88406 c 3.65684,-1.00572 5.52241,-1.60205 5.64547,-3.71435 z"
         id="path879" />
      <path
         style="fill:#ffffff;fill-opacity:1;fill-rule:evenodd;stroke:#000000;stroke-width:0.78008926;stroke-linecap:round;stroke-linejoin:round;stroke-miterlimit:4;stroke-dasharray:none;stroke-opacity:1;paint-order:normal"
         d="m 524.20828,538.5402 -4.21761,-3.04921 c 0,0 -0.77744,-4.00642 0.87161,-3.06248 2.92712,1.67552 3.346,6.11169 3.346,6.11169 z"
         id="path881"
         inkscape:connector-curvature="0"
         sodipodi:nodetypes="ccsc" />
    </g>
    <rect
       transform="rotate(90)"
       style="fill:url(#linearGradient895);fill-opacity:1;stroke-width:0.9865647"
       id="rect887"
       width="53.4375"
       height="53.4375"
       x="372.43451"
       y="-654.39465"
       ry="8.9910727" />
    <path
       sodipodi:nodetypes="cccccccsccccccccc"
       inkscape:connector-curvature="0"
       style="fill:url(#linearGradient920);fill-opacity:1;fill-rule:evenodd;stroke:none;stroke-width:1.32700717px;stroke-linecap:butt;stroke-linejoin:round;stroke-opacity:1"
       d="m 624.51337,386.81856 -20.70558,2.86049 c 0,0 2.89482,5.91706 12.70416,5.00551 l 9.498,10.7329 -18.84929,0.79457 c 0,0 5.03844,10.60049 25.94762,7.00132 l 4.31766,4.73337 c 0,0 3.35287,4.76749 4.14163,4.76749 0.78876,0 3.14564,-1.723 2.15968,-3.15326 -0.98595,-1.43024 -2.9572,-3.33722 -2.9572,-3.33722 l -0.9866,0.47676 -3.96215,-4.33717 c 14.82785,-4.42931 9.98861,-13.06491 9.98859,-13.06491 l -16.54765,5.69655 -9.52515,-10.93142 c 4.13654,-1.56564 4.63708,-3.95672 4.77628,-7.24502 z"
       id="path889-3" />
    <g
       transform="matrix(1.2017856,0,0,1.2017856,-11.89094,-257.61614)"
       id="g893">
      <path
         sodipodi:nodetypes="cccccccsccccccccc"
         inkscape:connector-curvature="0"
         style="fill:#ffffff;fill-opacity:1;fill-rule:evenodd;stroke:none;stroke-width:1px;stroke-linecap:butt;stroke-linejoin:round;stroke-opacity:1"
         d="m 530.6244,534.67082 -18.30446,1.83749 c 0,0 2.55912,3.80093 11.23092,3.21538 l 8.39656,6.89448 -16.66342,0.5104 c 0,0 4.45415,6.80942 22.93859,4.49743 l 3.81696,3.04057 c 0,0 2.96406,3.06248 3.66135,3.06248 0.69729,0 2.78085,-1.1068 1.90923,-2.02555 -0.87161,-0.91874 -2.61427,-2.14373 -2.61427,-2.14373 l -0.87218,0.30625 -3.50268,-2.78605 c 13.10833,-2.84525 8.83027,-8.39249 8.83026,-8.39249 l -14.6287,3.65929 -8.42056,-7.022 c 3.65684,-1.00572 4.09934,-2.54168 4.2224,-4.65398 z"
         id="path889" />
      <path
         style="fill:#ff6600;fill-opacity:1;fill-rule:evenodd;stroke:none;stroke-width:1px;stroke-linecap:butt;stroke-linejoin:miter;stroke-opacity:1"
         d="m 524.20828,538.5402 -4.21761,-3.04921 c 0,0 -0.73404,-6.30828 0.84375,-5.24952 3.80472,2.55312 3.37386,8.29873 3.37386,8.29873 z"
         id="path891"
         inkscape:connector-curvature="0"
         sodipodi:nodetypes="ccsc" />
    </g>
    <g
       id="g1034"
       transform="translate(95.625,-209.0625)">
      <rect
         transform="rotate(90)"
         style="fill:url(#linearGradient946);fill-opacity:1;stroke-width:0.9865647"
         id="rect936"
         width="53.4375"
         height="53.4375"
         x="581.49701"
         y="-622.51965"
         ry="8.9910727" />
      <path
         sodipodi:nodetypes="cccccccsccccccccc"
         inkscape:connector-curvature="0"
         style="fill:url(#linearGradient948);fill-opacity:1;fill-rule:evenodd;stroke:none;stroke-width:1.32700717px;stroke-linecap:butt;stroke-linejoin:round;stroke-opacity:1"
         d="m 592.63837,595.88106 -20.70558,2.86049 c 0,0 2.89482,5.91706 12.70416,5.00551 l 9.498,10.7329 -18.84929,0.79457 c 0,0 5.03844,10.60049 25.94762,7.00132 l 4.31766,4.73337 c 0,0 3.35287,4.76749 4.14163,4.76749 0.78876,0 3.14564,-1.723 2.15968,-3.15326 -0.98595,-1.43024 -2.9572,-3.33722 -2.9572,-3.33722 l -0.9866,0.47676 -3.96215,-4.33717 c 14.82785,-4.42931 9.98861,-13.06491 9.98859,-13.06491 l -16.54765,5.69655 -9.52515,-10.93142 c 4.13654,-1.56564 4.63708,-3.95672 4.77628,-7.24502 z"
         id="path938" />
      <g
         transform="matrix(1.2017856,0,0,1.2017856,-43.76594,-48.55364)"
         id="g944">
        <path
           sodipodi:nodetypes="cccccccsccccccccc"
           inkscape:connector-curvature="0"
           style="fill:#ffffff;fill-opacity:1;fill-rule:evenodd;stroke:none;stroke-width:1px;stroke-linecap:butt;stroke-linejoin:round;stroke-opacity:1"
           d="m 530.6244,534.67082 -18.30446,1.83749 c 0,0 2.55912,3.80093 11.23092,3.21538 l 8.39656,6.89448 -16.66342,0.5104 c 0,0 4.45415,6.80942 22.93859,4.49743 l 3.81696,3.04057 c 0,0 2.96406,3.06248 3.66135,3.06248 0.69729,0 2.78085,-1.1068 1.90923,-2.02555 -0.87161,-0.91874 -2.61427,-2.14373 -2.61427,-2.14373 l -0.87218,0.30625 -3.50268,-2.78605 c 13.10833,-2.84525 8.83027,-8.39249 8.83026,-8.39249 l -14.6287,3.65929 -8.42056,-7.022 c 3.65684,-1.00572 4.09934,-2.54168 4.2224,-4.65398 z"
           id="path940" />
        <path
           style="fill:#ff0000;fill-opacity:1;fill-rule:evenodd;stroke:none;stroke-width:1px;stroke-linecap:butt;stroke-linejoin:miter;stroke-opacity:1"
           d="m 524.20828,538.5402 -4.21761,-3.04921 c 0,0 -0.73404,-6.30828 0.84375,-5.24952 3.80472,2.55312 3.37386,8.29873 3.37386,8.29873 z"
           id="path942"
           inkscape:connector-curvature="0"
           sodipodi:nodetypes="ccsc" />
      </g>
    </g>
    <rect
       ry="8.9910727"
       y="-654.39465"
       x="436.18451"
       height="53.4375"
       width="53.4375"
       id="rect950"
       style="fill:url(#linearGradient970);fill-opacity:1;stroke-width:0.9865647"
       transform="rotate(90)" />
    <path
       id="path952"
       d="m 624.51337,450.56856 -20.70558,2.86049 c 0,0 2.89482,5.91706 12.70416,5.00551 l 9.498,10.7329 -18.84929,0.79457 c 0,0 5.03844,10.60049 25.94762,7.00132 l 4.31766,4.73337 c 0,0 3.35287,4.76749 4.14163,4.76749 0.78876,0 3.14564,-1.723 2.15968,-3.15326 -0.98595,-1.43024 -2.9572,-3.33722 -2.9572,-3.33722 l -0.9866,0.47676 -3.96215,-4.33717 c 14.82785,-4.42931 9.98861,-13.06491 9.98859,-13.06491 l -16.54765,5.69655 -9.52515,-10.93142 c 4.13654,-1.56564 4.63708,-3.95672 4.77628,-7.24502 z"
       style="fill:url(#linearGradient972);fill-opacity:1;fill-rule:evenodd;stroke:none;stroke-width:1.32700717px;stroke-linecap:butt;stroke-linejoin:round;stroke-opacity:1"
       inkscape:connector-curvature="0"
       sodipodi:nodetypes="cccccccsccccccccc" />
    <g
       id="g958"
       transform="matrix(1.2017856,0,0,1.2017856,-11.89094,-193.86614)"
       style="fill:#ffffff;fill-opacity:1">
      <path
         id="path954"
         d="m 530.6244,534.67082 -18.30446,1.83749 c 0,0 2.55912,3.80093 11.23092,3.21538 l 8.39656,6.89448 -16.66342,0.5104 c 0,0 4.45415,6.80942 22.93859,4.49743 l 3.81696,3.04057 c 0,0 2.96406,3.06248 3.66135,3.06248 0.69729,0 2.78085,-1.1068 1.90923,-2.02555 -0.87161,-0.91874 -2.61427,-2.14373 -2.61427,-2.14373 l -0.87218,0.30625 -3.50268,-2.78605 c 13.10833,-2.84525 8.83027,-8.39249 8.83026,-8.39249 l -14.6287,3.65929 -8.42056,-7.022 c 3.65684,-1.00572 4.09934,-2.54168 4.2224,-4.65398 z"
         style="fill:#ffffff;fill-opacity:1;fill-rule:evenodd;stroke:none;stroke-width:1px;stroke-linecap:butt;stroke-linejoin:round;stroke-opacity:1"
         inkscape:connector-curvature="0"
         sodipodi:nodetypes="cccccccsccccccccc" />
      <path
         sodipodi:nodetypes="ccsc"
         inkscape:connector-curvature="0"
         id="path956"
         d="m 524.20828,538.5402 -4.21761,-3.04921 c 0,0 -0.73404,-6.30828 0.84375,-5.24952 3.80472,2.55312 3.37386,8.29873 3.37386,8.29873 z"
         style="fill:#ffffff;fill-opacity:1;fill-rule:evenodd;stroke:none;stroke-width:1px;stroke-linecap:butt;stroke-linejoin:miter;stroke-opacity:1" />
    </g>
    <rect
       transform="rotate(90)"
       style="fill:url(#linearGradient974);fill-opacity:1;stroke-width:0.9865647"
       id="rect960"
       width="53.4375"
       height="53.4375"
       x="436.18451"
       y="-718.14465"
       ry="8.9910727" />
    <g
       transform="matrix(1.2017856,0,0,1.2017856,51.85906,-193.86614)"
       id="g968"
       style="fill:#ffffff;fill-opacity:1;stroke:#000000;stroke-width:0.78008926;stroke-miterlimit:4;stroke-dasharray:none">
      <path
         sodipodi:nodetypes="cccccccsccccccccc"
         inkscape:connector-curvature="0"
         style="fill:#ffffff;fill-opacity:1;fill-rule:evenodd;stroke:#000000;stroke-width:0.78008926;stroke-linecap:butt;stroke-linejoin:round;stroke-miterlimit:4;stroke-dasharray:none;stroke-opacity:1"
         d="m 530.6244,534.67082 -18.30446,1.83749 c 0,0 2.55912,3.80093 11.23092,3.21538 l 8.39656,6.89448 -16.66342,0.5104 c 0,0 4.45415,6.80942 22.93859,4.49743 l 3.81696,3.04057 c 0,0 2.96406,3.06248 3.66135,3.06248 0.69729,0 2.78085,-1.1068 1.90923,-2.02555 -0.87161,-0.91874 -2.61427,-2.14373 -2.61427,-2.14373 l -0.87218,0.30625 -3.50268,-2.78605 c 13.10833,-2.84525 8.83027,-8.39249 8.83026,-8.39249 l -14.6287,3.65929 -8.42056,-7.022 c 3.65684,-1.00572 4.09934,-2.54168 4.2224,-4.65398 z"
         id="path964" />
      <path
         style="fill:#ffffff;fill-opacity:1;fill-rule:evenodd;stroke:#000000;stroke-width:0.78008926;stroke-linecap:butt;stroke-linejoin:miter;stroke-miterlimit:4;stroke-dasharray:none;stroke-opacity:1"
         d="m 524.20828,538.5402 -4.21761,-3.04921 c 0,0 -0.73404,-6.30828 0.84375,-5.24952 3.80472,2.55312 3.37386,8.29873 3.37386,8.29873 z"
         id="path966"
         inkscape:connector-curvature="0"
         sodipodi:nodetypes="ccsc" />
    </g>
    <path
       sodipodi:nodetypes="cccccccsccccccccc"
       inkscape:connector-curvature="0"
       style="fill:url(#linearGradient986);fill-opacity:1;fill-rule:evenodd;stroke:none;stroke-width:1.32700717px;stroke-linecap:butt;stroke-linejoin:round;stroke-opacity:1"
       d="m 624.51337,450.56856 -20.70558,2.86049 c 0,0 2.89482,5.91706 12.70416,5.00551 l 9.498,10.7329 -18.84929,0.79457 c 0,0 5.03844,10.60049 25.94762,7.00132 l 4.31766,4.73337 c 0,0 3.35287,4.76749 4.14163,4.76749 0.78876,0 3.14564,-1.723 2.15968,-3.15326 -0.98595,-1.43024 -2.9572,-3.33722 -2.9572,-3.33722 l -0.9866,0.47676 -3.96215,-4.33717 c 14.82785,-4.42931 9.98861,-13.06491 9.98859,-13.06491 l -16.54765,5.69655 -9.52515,-10.93142 c 4.13654,-1.56564 4.63708,-3.95672 4.77628,-7.24502 z"
       id="path978" />
    <g
       style="fill:#ffffff;fill-opacity:1"
       transform="matrix(1.2017856,0,0,1.2017856,-11.89094,-193.86614)"
       id="g984">
      <path
         sodipodi:nodetypes="cccccccsccccccccc"
         inkscape:connector-curvature="0"
         style="fill:#ffffff;fill-opacity:1;fill-rule:evenodd;stroke:none;stroke-width:1px;stroke-linecap:butt;stroke-linejoin:round;stroke-opacity:1"
         d="m 530.6244,534.67082 -18.30446,1.83749 c 0,0 2.55912,3.80093 11.23092,3.21538 l 8.39656,6.89448 -16.66342,0.5104 c 0,0 4.45415,6.80942 22.93859,4.49743 l 3.81696,3.04057 c 0,0 2.96406,3.06248 3.66135,3.06248 0.69729,0 2.78085,-1.1068 1.90923,-2.02555 -0.87161,-0.91874 -2.61427,-2.14373 -2.61427,-2.14373 l -0.87218,0.30625 -3.50268,-2.78605 c 13.10833,-2.84525 8.83027,-8.39249 8.83026,-8.39249 l -14.6287,3.65929 -8.42056,-7.022 c 3.65684,-1.00572 4.09934,-2.54168 4.2224,-4.65398 z"
         id="path980" />
      <path
         style="fill:#ffffff;fill-opacity:1;fill-rule:evenodd;stroke:none;stroke-width:1px;stroke-linecap:butt;stroke-linejoin:miter;stroke-opacity:1"
         d="m 524.20828,538.5402 -4.21761,-3.04921 c 0,0 -0.73404,-6.30828 0.84375,-5.24952 3.80472,2.55312 3.37386,8.29873 3.37386,8.29873 z"
         id="path982"
         inkscape:connector-curvature="0"
         sodipodi:nodetypes="ccsc" />
    </g>
    <g
       id="g1027"
       transform="matrix(1.754386,0,0,1.754386,-459.96549,-847.0449)"
       inkscape:export-filename="/home/adly/code/freeflight-logbook/src/img/no-img.png"
       inkscape:export-xdpi="96"
       inkscape:export-ydpi="96">
      <rect
         ry="0"
         y="-558.76965"
         x="708.99701"
         height="53.4375"
         width="53.4375"
         id="rect988"
         style="fill:url(#linearGradient1006);fill-opacity:1;stroke-width:0.9865647"
         transform="rotate(90)" />
      <path
         id="path990"
         d="m 528.88837,723.38106 -20.70558,2.86049 c 0,0 2.89482,5.91706 12.70416,5.00551 l 9.498,10.7329 -18.84929,0.79457 c 0,0 5.03844,10.60049 25.94762,7.00132 l 4.31766,4.73337 c 0,0 3.35287,4.76749 4.14163,4.76749 0.78876,0 3.14564,-1.723 2.15968,-3.15326 -0.98595,-1.43024 -2.9572,-3.33722 -2.9572,-3.33722 l -0.9866,0.47676 -3.96215,-4.33717 c 14.82785,-4.42931 9.98861,-13.06491 9.98859,-13.06491 l -16.54765,5.69655 -9.52515,-10.93142 c 4.13654,-1.56564 4.63708,-3.95672 4.77628,-7.24502 z"
         style="fill:url(#linearGradient1008);fill-opacity:1;fill-rule:evenodd;stroke:none;stroke-width:1.32700717px;stroke-linecap:butt;stroke-linejoin:round;stroke-opacity:1"
         inkscape:connector-curvature="0"
         sodipodi:nodetypes="cccccccsccccccccc" />
      <g
         id="g996"
         transform="matrix(1.2017856,0,0,1.2017856,-107.51594,78.94636)"
         style="fill:#ffffff;fill-opacity:1">
        <path
           id="path992"
           d="m 530.6244,534.67082 -18.30446,1.83749 c 0,0 2.55912,3.80093 11.23092,3.21538 l 8.39656,6.89448 -16.66342,0.5104 c 0,0 4.45415,6.80942 22.93859,4.49743 l 3.81696,3.04057 c 0,0 2.96406,3.06248 3.66135,3.06248 0.69729,0 2.78085,-1.1068 1.90923,-2.02555 -0.87161,-0.91874 -2.61427,-2.14373 -2.61427,-2.14373 l -0.87218,0.30625 -3.50268,-2.78605 c 13.10833,-2.84525 8.83027,-8.39249 8.83026,-8.39249 l -14.6287,3.65929 -8.42056,-7.022 c 3.65684,-1.00572 4.09934,-2.54168 4.2224,-4.65398 z"
           style="fill:#ffffff;fill-opacity:1;fill-rule:evenodd;stroke:none;stroke-width:1px;stroke-linecap:butt;stroke-linejoin:round;stroke-opacity:1"
           inkscape:connector-curvature="0"
           sodipodi:nodetypes="cccccccsccccccccc" />
        <path
           sodipodi:nodetypes="ccsc"
           inkscape:connector-curvature="0"
           id="path994"
           d="m 524.20828,538.5402 -4.21761,-3.04921 c 0,0 -0.73404,-6.30828 0.84375,-5.24952 3.80472,2.55312 3.37386,8.29873 3.37386,8.29873 z"
           style="fill:#ffffff;fill-opacity:1;fill-rule:evenodd;stroke:none;stroke-width:1px;stroke-linecap:butt;stroke-linejoin:miter;stroke-opacity:1" />
      </g>
      <path
         sodipodi:nodetypes="cccccccsccccccccc"
         inkscape:connector-curvature="0"
         style="fill:url(#linearGradient1010);fill-opacity:1;fill-rule:evenodd;stroke:none;stroke-width:1.32700717px;stroke-linecap:butt;stroke-linejoin:round;stroke-opacity:1"
         d="m 528.88837,723.38106 -20.70558,2.86049 c 0,0 2.89482,5.91706 12.70416,5.00551 l 9.498,10.7329 -18.84929,0.79457 c 0,0 5.03844,10.60049 25.94762,7.00132 l 4.31766,4.73337 c 0,0 3.35287,4.76749 4.14163,4.76749 0.78876,0 3.14564,-1.723 2.15968,-3.15326 -0.98595,-1.43024 -2.9572,-3.33722 -2.9572,-3.33722 l -0.9866,0.47676 -3.96215,-4.33717 c 14.82785,-4.42931 9.98861,-13.06491 9.98859,-13.06491 l -16.54765,5.69655 -9.52515,-10.93142 c 4.13654,-1.56564 4.63708,-3.95672 4.77628,-7.24502 z"
         id="path998" />
      <g
         style="fill:#ffffff;fill-opacity:1"
         transform="matrix(1.2017856,0,0,1.2017856,-107.51594,78.94636)"
         id="g1004">
        <path
           sodipodi:nodetypes="cccccccsccccccccc"
           inkscape:connector-curvature="0"
           style="fill:#ffffff;fill-opacity:1;fill-rule:evenodd;stroke:none;stroke-width:1px;stroke-linecap:butt;stroke-linejoin:round;stroke-opacity:1"
           d="m 530.6244,534.67082 -18.30446,1.83749 c 0,0 2.55912,3.80093 11.23092,3.21538 l 8.39656,6.89448 -16.66342,0.5104 c 0,0 4.45415,6.80942 22.93859,4.49743 l 3.81696,3.04057 c 0,0 2.96406,3.06248 3.66135,3.06248 0.69729,0 2.78085,-1.1068 1.90923,-2.02555 -0.87161,-0.91874 -2.61427,-2.14373 -2.61427,-2.14373 l -0.87218,0.30625 -3.50268,-2.78605 c 13.10833,-2.84525 8.83027,-8.39249 8.83026,-8.39249 l -14.6287,3.65929 -8.42056,-7.022 c 3.65684,-1.00572 4.09934,-2.54168 4.2224,-4.65398 z"
           id="path1000" />
        <path
           style="fill:#ffffff;fill-opacity:1;fill-rule:evenodd;stroke:none;stroke-width:1px;stroke-linecap:butt;stroke-linejoin:miter;stroke-opacity:1"
           d="m 524.20828,538.5402 -4.21761,-3.04921 c 0,0 -0.73404,-6.30828 0.84375,-5.24952 3.80472,2.55312 3.37386,8.29873 3.37386,8.29873 z"
           id="path1002"
           inkscape:connector-curvature="0"
           sodipodi:nodetypes="ccsc" />
      </g>
    </g>
    <g
       id="g1046"
       transform="translate(90.937501,-479.0625)">
      <rect
         ry="8.9910727"
         y="-622.51965"
         x="581.49701"
         height="53.4375"
         width="53.4375"
         id="rect1036"
         style="fill:url(#linearGradient1048);fill-opacity:1;stroke-width:0.9865647"
         transform="rotate(90)" />
      <path
         id="path1038"
         d="m 592.63837,595.88106 -20.70558,2.86049 c 0,0 2.89482,5.91706 12.70416,5.00551 l 9.498,10.7329 -18.84929,0.79457 c 0,0 5.03844,10.60049 25.94762,7.00132 l 4.31766,4.73337 c 0,0 3.35287,4.76749 4.14163,4.76749 0.78876,0 3.14564,-1.723 2.15968,-3.15326 -0.98595,-1.43024 -2.9572,-3.33722 -2.9572,-3.33722 l -0.9866,0.47676 -3.96215,-4.33717 c 14.82785,-4.42931 9.98861,-13.06491 9.98859,-13.06491 l -16.54765,5.69655 -9.52515,-10.93142 c 4.13654,-1.56564 4.63708,-3.95672 4.77628,-7.24502 z"
         style="fill:url(#linearGradient1050);fill-opacity:1;fill-rule:evenodd;stroke:none;stroke-width:1.32700717px;stroke-linecap:butt;stroke-linejoin:round;stroke-opacity:1"
         inkscape:connector-curvature="0"
         sodipodi:nodetypes="cccccccsccccccccc" />
      <g
         id="g1044"
         transform="matrix(1.2017856,0,0,1.2017856,-43.76594,-48.55364)">
        <path
           id="path1040"
           d="m 530.6244,534.67082 -18.30446,1.83749 c 0,0 2.55912,3.80093 11.23092,3.21538 l 8.39656,6.89448 -16.66342,0.5104 c 0,0 4.45415,6.80942 22.93859,4.49743 l 3.81696,3.04057 c 0,0 2.96406,3.06248 3.66135,3.06248 0.69729,0 2.78085,-1.1068 1.90923,-2.02555 -0.87161,-0.91874 -2.61427,-2.14373 -2.61427,-2.14373 l -0.87218,0.30625 -3.50268,-2.78605 c 13.10833,-2.84525 8.83027,-8.39249 8.83026,-8.39249 l -14.6287,3.65929 -8.42056,-7.022 c 3.65684,-1.00572 4.09934,-2.54168 4.2224,-4.65398 z"
           style="fill:#ffffff;fill-opacity:1;fill-rule:evenodd;stroke:none;stroke-width:1px;stroke-linecap:butt;stroke-linejoin:round;stroke-opacity:1"
           inkscape:connector-curvature="0"
           sodipodi:nodetypes="cccccccsccccccccc" />
        <path
           sodipodi:nodetypes="ccsc"
           inkscape:connector-curvature="0"
           id="path1042"
           d="m 524.20828,538.5402 -4.21761,-3.04921 c 0,0 -0.73404,-6.30828 0.84375,-5.24952 3.80472,2.55312 3.37386,8.29873 3.37386,8.29873 z"
           style="fill:#ff0000;fill-opacity:1;fill-rule:evenodd;stroke:none;stroke-width:1px;stroke-linecap:butt;stroke-linejoin:miter;stroke-opacity:1" />
      </g>
    </g>
    <text
       xml:space="preserve"
       style="font-style:normal;font-variant:normal;font-weight:normal;font-stretch:normal;font-size:17.5px;line-height:1.25;font-family:sans-serif;-inkscape-font-specification:'sans-serif, Normal';font-variant-ligatures:normal;font-variant-caps:normal;font-variant-numeric:normal;font-feature-settings:normal;text-align:start;letter-spacing:0px;word-spacing:0px;writing-mode:lr-tb;text-anchor:start;fill:#000000;fill-opacity:1;stroke:none;stroke-width:0.9375"
       x="17.8125"
       y="32.362244"
       id="text1054"><tspan
         sodipodi:role="line"
         id="tspan1052"
         x="17.8125"
         y="32.362244"
         style="stroke-width:0.9375">iPhone</tspan><tspan
         sodipodi:role="line"
         x="17.8125"
         y="54.237244"
         style="stroke-width:0.9375"
         id="tspan1128">29 - icon-small.png</tspan><tspan
         sodipodi:role="line"
         x="17.8125"
         y="76.112244"
         style="stroke-width:0.9375"
         id="tspan1168">40 - icon-40.png</tspan><tspan
         sodipodi:role="line"
         x="17.8125"
         y="97.987244"
         style="stroke-width:0.9375"
         id="tspan1164">50 - icon-50.png</tspan><tspan
         sodipodi:role="line"
         x="17.8125"
         y="119.86224"
         style="stroke-width:0.9375"
         id="tspan1130">57 - icon.png</tspan><tspan
         sodipodi:role="line"
         x="17.8125"
         y="141.73724"
         style="stroke-width:0.9375"
         id="tspan1138">58 - icon-small@2x.png</tspan><tspan
         sodipodi:role="line"
         x="17.8125"
         y="163.61224"
         style="stroke-width:0.9375"
         id="tspan1092">60 - icon-60.png</tspan><tspan
         sodipodi:role="line"
         x="17.8125"
         y="185.48724"
         style="stroke-width:0.9375"
         id="tspan1104">72 - icon-72.png</tspan><tspan
         sodipodi:role="line"
         x="17.8125"
         y="207.36224"
         style="stroke-width:0.9375"
         id="tspan1072">76 - icon-76.png</tspan><tspan
         sodipodi:role="line"
         x="17.8125"
         y="229.23724"
         style="stroke-width:0.9375"
         id="tspan1134">80 - icon-40@2x.png</tspan><tspan
         sodipodi:role="line"
         x="17.8125"
         y="251.11224"
         style="stroke-width:0.9375"
         id="tspan1076">87 - icon-small@3x.png</tspan><tspan
         sodipodi:role="line"
         x="17.8125"
         y="272.98724"
         style="stroke-width:0.9375"
         id="tspan1096">100 - icon-50@2x.png</tspan><tspan
         sodipodi:role="line"
         x="17.8125"
         y="294.86224"
         style="stroke-width:0.9375"
         id="tspan1120">114 - icon@2x.png</tspan><tspan
         sodipodi:role="line"
         x="17.8125"
         y="316.73724"
         style="stroke-width:0.9375"
         id="tspan1082">120 - icon-60@2x.png</tspan><tspan
         sodipodi:role="line"
         x="17.8125"
         y="338.61224"
         style="stroke-width:0.9375"
         id="tspan1124">144 - icon-72@2x.png</tspan><tspan
         sodipodi:role="line"
         x="17.8125"
         y="360.48724"
         style="stroke-width:0.9375"
         id="tspan1116">152 - icon-76@2x.png</tspan><tspan
         sodipodi:role="line"
         x="17.8125"
         y="382.36224"
         style="stroke-width:0.9375"
         id="tspan1102">180 - icon-60@3x.png</tspan></text>
    <g
       transform="matrix(3.1578947,0,0,3.1578947,-1333.0194,-1742.3093)"
       id="g1182"
       inkscape:export-filename="/home/adly/code/freeflight-logbook/src/img/logo.png"
       inkscape:export-xdpi="90.666695"
       inkscape:export-ydpi="90.666695">
      <rect
         transform="rotate(90)"
         style="fill:url(#linearGradient1184);fill-opacity:1;stroke-width:0.9865647"
         id="rect1172"
         width="53.4375"
         height="53.4375"
         x="581.49701"
         y="-622.51965"
         ry="8.9910727" />
      <path
         sodipodi:nodetypes="cccccccsccccccccc"
         inkscape:connector-curvature="0"
         style="fill:url(#linearGradient1186);fill-opacity:1;fill-rule:evenodd;stroke:none;stroke-width:1.32700717px;stroke-linecap:butt;stroke-linejoin:round;stroke-opacity:1"
         d="m 592.63837,595.88106 -20.70558,2.86049 c 0,0 2.89482,5.91706 12.70416,5.00551 l 9.498,10.7329 -18.84929,0.79457 c 0,0 5.03844,10.60049 25.94762,7.00132 l 4.31766,4.73337 c 0,0 3.35287,4.76749 4.14163,4.76749 0.78876,0 3.14564,-1.723 2.15968,-3.15326 -0.98595,-1.43024 -2.9572,-3.33722 -2.9572,-3.33722 l -0.9866,0.47676 -3.96215,-4.33717 c 14.82785,-4.42931 9.98861,-13.06491 9.98859,-13.06491 l -16.54765,5.69655 -9.52515,-10.93142 c 4.13654,-1.56564 4.63708,-3.95672 4.77628,-7.24502 z"
         id="path1174" />
      <g
         transform="matrix(1.2017856,0,0,1.2017856,-43.76594,-48.55364)"
         id="g1180">
        <path
           sodipodi:nodetypes="cccccccsccccccccc"
           inkscape:connector-curvature="0"
           style="fill:#ffffff;fill-opacity:1;fill-rule:evenodd;stroke:none;stroke-width:1px;stroke-linecap:butt;stroke-linejoin:round;stroke-opacity:1"
           d="m 530.6244,534.67082 -18.30446,1.83749 c 0,0 2.55912,3.80093 11.23092,3.21538 l 8.39656,6.89448 -16.66342,0.5104 c 0,0 4.45415,6.80942 22.93859,4.49743 l 3.81696,3.04057 c 0,0 2.96406,3.06248 3.66135,3.06248 0.69729,0 2.78085,-1.1068 1.90923,-2.02555 -0.87161,-0.91874 -2.61427,-2.14373 -2.61427,-2.14373 l -0.87218,0.30625 -3.50268,-2.78605 c 13.10833,-2.84525 8.83027,-8.39249 8.83026,-8.39249 l -14.6287,3.65929 -8.42056,-7.022 c 3.65684,-1.00572 4.09934,-2.54168 4.2224,-4.65398 z"
           id="path1176" />
        <path
           style="fill:#ff0000;fill-opacity:1;fill-rule:evenodd;stroke:none;stroke-width:1px;stroke-linecap:butt;stroke-linejoin:miter;stroke-opacity:1"
           d="m 524.20828,538.5402 -4.21761,-3.04921 c 0,0 -0.73404,-6.30828 0.84375,-5.24952 3.80472,2.55312 3.37386,8.29873 3.37386,8.29873 z"
           id="path1178"
           inkscape:connector-curvature="0"
           sodipodi:nodetypes="ccsc" />
      </g>
    </g>
    <text
       xml:space="preserve"
       style="font-style:normal;font-variant:normal;font-weight:normal;font-stretch:normal;font-size:17.5px;line-height:1.25;font-family:sans-serif;-inkscape-font-specification:'sans-serif, Normal';font-variant-ligatures:normal;font-variant-caps:normal;font-variant-numeric:normal;font-feature-settings:normal;text-align:start;letter-spacing:0px;word-spacing:0px;writing-mode:lr-tb;text-anchor:start;fill:#000000;fill-opacity:1;stroke:none;stroke-width:0.9375"
       x="16.875"
       y="420.48721"
       id="text1220"><tspan
         sodipodi:role="line"
         id="tspan1218"
         x="16.875"
         y="420.48721"
         style="stroke-width:0.9375">Android</tspan><tspan
         sodipodi:role="line"
         x="16.875"
         y="442.36221"
         style="stroke-width:0.9375"
         id="tspan1224">36 - drawable-ldpi-icon.png</tspan><tspan
         sodipodi:role="line"
         x="16.875"
         y="464.23721"
         style="stroke-width:0.9375"
         id="tspan1226">48 - drawable-mdpi-icon.png</tspan><tspan
         sodipodi:role="line"
         x="16.875"
         y="486.11221"
         style="stroke-width:0.9375"
         id="tspan1222">72 - drawable-hdpi-icon.png</tspan><tspan
         sodipodi:role="line"
         x="16.875"
         y="507.98718"
         style="stroke-width:0.9375"
         id="tspan1228">96 - drawable-xhdpi-icon.png</tspan><tspan
         sodipodi:role="line"
         x="16.875"
         y="529.86218"
         style="stroke-width:0.9375"
         id="tspan1230">144 - drawable-xxhdpi-icon.png</tspan><tspan
         sodipodi:role="line"
         x="16.875"
         y="551.73718"
         style="stroke-width:0.9375"
         id="tspan1232">192 - drawable-xxxhdpi-icon.png</tspan><tspan
         sodipodi:role="line"
         x="16.875"
         y="573.61218"
         style="stroke-width:0.9375"
         id="tspan1234" /></text>
  </g>
</svg>
