<?xml version="1.0" encoding="UTF-8" standalone="no"?>
<!-- Created with Inkscape (http://www.inkscape.org/) -->

<svg
   xmlns:dc="http://purl.org/dc/elements/1.1/"
   xmlns:cc="http://creativecommons.org/ns#"
   xmlns:rdf="http://www.w3.org/1999/02/22-rdf-syntax-ns#"
   xmlns:svg="http://www.w3.org/2000/svg"
   xmlns="http://www.w3.org/2000/svg"
   xmlns:xlink="http://www.w3.org/1999/xlink"
   xmlns:sodipodi="http://sodipodi.sourceforge.net/DTD/sodipodi-0.dtd"
   xmlns:inkscape="http://www.inkscape.org/namespaces/inkscape"
   width="47.625mm"
   height="47.625mm"
   viewBox="0 0 47.625 47.625"
   version="1.1"
   id="svg1913"
   inkscape:version="0.92.3 (2405546, 2018-03-11)"
   sodipodi:docname="icon.svg">
  <defs
     id="defs1907">
    <linearGradient
       inkscape:collect="always"
       xlink:href="#linearGradient869"
       id="linearGradient1184"
       gradientUnits="userSpaceOnUse"
       gradientTransform="translate(76.164856,-1140.2667)"
       x1="505.33215"
       y1="544.46576"
       x2="558.76965"
       y2="544.46576" />
    <linearGradient
       inkscape:collect="always"
       id="linearGradient869">
      <stop
         style="stop-color:#9bd5e4;stop-opacity:1"
         offset="0"
         id="stop865" />
      <stop
         style="stop-color:#144f84;stop-opacity:1"
         offset="1"
         id="stop867" />
    </linearGradient>
    <linearGradient
       inkscape:collect="always"
       xlink:href="#linearGradient918"
       id="linearGradient1186"
       gradientUnits="userSpaceOnUse"
       gradientTransform="translate(63.75)"
       x1="523.96509"
       y1="588.94855"
       x2="549.82568"
       y2="635.18134" />
    <linearGradient
       inkscape:collect="always"
       id="linearGradient918">
      <stop
         style="stop-color:#000000;stop-opacity:0.39215687"
         offset="0"
         id="stop914" />
      <stop
         style="stop-color:#000000;stop-opacity:0.07843138"
         offset="1"
         id="stop916" />
    </linearGradient>
  </defs>
  <sodipodi:namedview
     id="base"
     pagecolor="#ffffff"
     bordercolor="#666666"
     borderopacity="1.0"
     inkscape:pageopacity="0.0"
     inkscape:pageshadow="2"
     inkscape:zoom="0.35"
     inkscape:cx="-384.28573"
     inkscape:cy="-152.85714"
     inkscape:document-units="mm"
     inkscape:current-layer="layer1"
     showgrid="false"
     fit-margin-top="0"
     fit-margin-left="0"
     fit-margin-right="0"
     fit-margin-bottom="0"
     inkscape:window-width="1600"
     inkscape:window-height="807"
     inkscape:window-x="0"
     inkscape:window-y="26"
     inkscape:window-maximized="1" />
  <metadata
     id="metadata1910">
    <rdf:RDF>
      <cc:Work
         rdf:about="">
        <dc:format>image/svg+xml</dc:format>
        <dc:type
           rdf:resource="http://purl.org/dc/dcmitype/StillImage" />
        <dc:title></dc:title>
      </cc:Work>
    </rdf:RDF>
  </metadata>
  <g
     inkscape:label="Layer 1"
     inkscape:groupmode="layer"
     id="layer1"
     transform="translate(-68.413693,-60.764881)">
    <g
       transform="matrix(0.89122806,0,0,0.89122806,-438.76829,-457.48157)"
       id="g1182"
       inkscape:export-filename="/home/adly/code/freeflight-logbook/src/img/logo.png"
       inkscape:export-xdpi="90.666695"
       inkscape:export-ydpi="90.666695">
      <rect
         transform="rotate(90)"
         style="fill:url(#linearGradient1184);fill-opacity:1;stroke-width:0.9865647"
         id="rect1172"
         width="53.4375"
         height="53.4375"
         x="581.49701"
         y="-622.51965"
         ry="8.9910727" />
      <path
         sodipodi:nodetypes="cccccccsccccccccc"
         inkscape:connector-curvature="0"
         style="fill:url(#linearGradient1186);fill-opacity:1;fill-rule:evenodd;stroke:none;stroke-width:1.32700717px;stroke-linecap:butt;stroke-linejoin:round;stroke-opacity:1"
         d="m 592.63837,595.88106 -20.70558,2.86049 c 0,0 2.89482,5.91706 12.70416,5.00551 l 9.498,10.7329 -18.84929,0.79457 c 0,0 5.03844,10.60049 25.94762,7.00132 l 4.31766,4.73337 c 0,0 3.35287,4.76749 4.14163,4.76749 0.78876,0 3.14564,-1.723 2.15968,-3.15326 -0.98595,-1.43024 -2.9572,-3.33722 -2.9572,-3.33722 l -0.9866,0.47676 -3.96215,-4.33717 c 14.82785,-4.42931 9.98861,-13.06491 9.98859,-13.06491 l -16.54765,5.69655 -9.52515,-10.93142 c 4.13654,-1.56564 4.63708,-3.95672 4.77628,-7.24502 z"
         id="path1174" />
      <g
         transform="matrix(1.2017856,0,0,1.2017856,-43.76594,-48.55364)"
         id="g1180">
        <path
           sodipodi:nodetypes="cccccccsccccccccc"
           inkscape:connector-curvature="0"
           style="fill:#ffffff;fill-opacity:1;fill-rule:evenodd;stroke:none;stroke-width:1px;stroke-linecap:butt;stroke-linejoin:round;stroke-opacity:1"
           d="m 530.6244,534.67082 -18.30446,1.83749 c 0,0 2.55912,3.80093 11.23092,3.21538 l 8.39656,6.89448 -16.66342,0.5104 c 0,0 4.45415,6.80942 22.93859,4.49743 l 3.81696,3.04057 c 0,0 2.96406,3.06248 3.66135,3.06248 0.69729,0 2.78085,-1.1068 1.90923,-2.02555 -0.87161,-0.91874 -2.61427,-2.14373 -2.61427,-2.14373 l -0.87218,0.30625 -3.50268,-2.78605 c 13.10833,-2.84525 8.83027,-8.39249 8.83026,-8.39249 l -14.6287,3.65929 -8.42056,-7.022 c 3.65684,-1.00572 4.09934,-2.54168 4.2224,-4.65398 z"
           id="path1176" />
        <path
           style="fill:#ff0000;fill-opacity:1;fill-rule:evenodd;stroke:none;stroke-width:1px;stroke-linecap:butt;stroke-linejoin:miter;stroke-opacity:1"
           d="m 524.20828,538.5402 -4.21761,-3.04921 c 0,0 -0.73404,-6.30828 0.84375,-5.24952 3.80472,2.55312 3.37386,8.29873 3.37386,8.29873 z"
           id="path1178"
           inkscape:connector-curvature="0"
           sodipodi:nodetypes="ccsc" />
      </g>
    </g>
  </g>
</svg>
